# xmcd
#
# Track frame offsets:
#	150
#	17134
#	35087
#	49396
#	65279
#	79839
#	95192
#	112574
#	127236
#	144520
#	158557
#
# Disc length: 2355 seconds
#
# Revision: 0
# Processed by: cddbd v1.5.2PL0 Copyright (c) Steve Scherf et al.
# Submitted via: audiograbber 1.83.01
#
DISCID=9409310b
DTITLE=Titio Luiz e Tia Lurdes - Titio Luiz e Tia Lurdes
DYEAR=2008
DGENRE=Popular
TTITLE0=Vou  pro Bailão
TTITLE1=Sonhando com o Sucesso
TTITLE2=Dançando uma Valsa
TTITLE3=Flor Paraguaia
TTITLE4=A Saudade Insiste
TTITLE5=Casca pra Frente
TTITLE6=Bugio Gaúcho
TTITLE7=Vanerita
TTITLE8=Chalana
TTITLE9=Penas
TTITLE10=Por Amor a Música
EXTD=
EXTT0=
EXTT1=
EXTT2=
EXTT3=
EXTT4=
EXTT5=
EXTT6=
EXTT7=
EXTT8=
EXTT9=
EXTT10=
PLAYORDER=
